<svg version="1.2" xmlns="http://www.w3.org/2000/svg" viewBox="0 0 1649 437" width="1649" height="437">
	<title>logo (2)ffff-svg</title>
	<style>
		.s0 { fill: #0075c2 } 
	</style>
	<g id="#ffffffff">
		<path id="Layer" fill-rule="evenodd" class="s0" d="m930.3 0h7.2c13.4 1.7 23.7 14.4 22.6 27.9c-0.1 106.8 0 213.5-0.1 320.3c0.8 13.6-10.5 26.3-24.2 26.8c-13.8 1.3-27.2-10.6-27.2-24.6c-0.2-108.2-0.3-216.5-0.1-324.7c-0.3-12.6 9.6-23.5 21.8-25.7zm349.2 0h7.8c-0.7 4.4-7 4.1-7.8 0zm339.2 0h6.7c11.5 1.4 20.8 10.8 22.6 22.1v330.3c-1.6 12.4-12.7 22.8-25.4 22.7c-14.4 0.6-26.9-12.6-26.1-26.8c-0.1-106.8 0-213.6 0-320.4c-1.2-13.4 9-25.9 22.2-27.9zm-1134.1 116.3c37.3-6 77.4 3.4 107 27.2c11.1 9.2 10.2 28.4-1.5 36.6c-9.2 7.2-22.6 5.5-31.1-1.8c-36.9-27.2-94.1-19.7-122.2 16.7c-23.7 28.5-23 73.3 1.6 101.1c28.8 35.1 85.2 41.4 121.5 14.3c8.6-7.9 22.7-10 32.2-2.3c11.3 8.3 12.2 26.7 1.7 35.9c-46.4 38.9-119 40.8-167.6 4.8c-29.7-21.3-50.2-55.4-53.5-92c-3.4-33 7.1-67 28.2-92.6c20.8-25.5 51.2-42.8 83.7-47.9zm239.1 0.1c32.8-5.8 67.8 1.7 95.2 20.7c29.8 20.2 50.5 53.1 55.5 88.7c4.6 31.5-2.7 64.6-20.6 91c-19.8 29.9-52.4 51.1-88 56.4c-34.1 5.4-70.1-3.6-97.6-24.4c-29.7-22.2-49.2-57.5-51.7-94.5c-2.6-32.9 8-66.7 29.1-92.2c19.4-23.9 47.7-40.5 78.1-45.7zm2.4 47.9c-20.5 5-38.9 18.2-50 36.2c-19.3 29.6-16.2 71.3 7.1 97.8c24.4 29.9 70.8 38 103.9 18c35.3-19.4 51.3-66.4 35.1-103.3c-14.4-36.9-57.7-59.1-96.1-48.7zm376.4-48.2c32.8-5.2 67.4 2.7 94.4 22c29.8 20.7 50.2 54.5 54.4 90.6c4.6 35.5-6.4 72.6-29.7 99.8c-23.8 28.5-60.3 46-97.5 46.2c-34.5 0.6-68.8-13.5-93.1-37.9c-23.3-23-37.3-55.1-38.2-87.8c-1.2-30 8.5-60.1 27-83.8c19.9-26.1 50.2-44.2 82.7-49.1zm-0.2 48.3c-18.6 4.7-35.6 16.1-46.7 31.9c-21.9 29.2-20.5 72.7 3 100.6c23.7 30.4 69.9 39.6 103.4 20.3c35.8-18.7 52.9-65.3 37.4-102.6c-13.8-37.9-58-61-97.1-50.2zm180.3-24.4c-0.2-13.3 11.3-25.3 24.5-25.6c13.2-1 25.9 9.7 26.8 22.9c0.4 8.1 0.1 16.1 0.1 24.2c21.7-25.9 53.5-43.3 87.3-46.4c37-3.8 75.2 9.3 101.9 35.1c27.5 25.7 42.7 63.8 40.4 101.4c-1.7 37.9-21.3 74.4-51.8 97.1c-26.9 20.4-61.9 29.5-95.3 24.8c-31.9-4.1-61.6-21.1-82.3-45.6c0 27.8 0.1 55.6-0.1 83.3c0.1 13.2-11.4 25-24.6 25.3c-13.8 0.9-26.9-11-26.8-24.9c0.1-90.5-0.3-181.1-0.1-271.6zm130.1 24.7c-21.9 5.8-41.1 21.1-51.7 41.2c-17.3 31.5-10.5 73.6 15.7 98.2c26 26 70 30.8 100.9 10.7c34.6-20.6 49-68.2 31.5-104.5c-15.5-35.9-58.7-56.6-96.4-45.6z" />
		<path id="Layer" fill-rule="evenodd" class="s0" d="m48.3 55.8c24.6-25.4 57.4-42.9 92.3-48.9c35.9-6.4 73.8-1 106.3 15.5c35.2 17.6 63.8 47.7 79.5 83.8c19.6 43.9 19.2 96.2-1 139.9c-21.4 47.6-65.9 83.8-116.8 95.3c-7 16.5-14 32.9-21 49.4c-2.5 5.6-5.6 12.4-12.2 14c-7.2 1.3-11.9-5.9-14.6-11.5c-7.3-16.8-14.5-33.6-21.7-50.4c-43.1-8.1-82.6-33.3-107.7-69.1c-20.4-28.5-31.8-63.4-30.8-98.5c-1.4-44.2 16.9-88 47.7-119.5zm2.4 50.9c0 13.2 7.3 25.1 17.1 33.4c12.3-26 35.6-46 62.9-54.9c-8.4-14.4-25-24.1-41.9-22c-21.4 1.8-39.2 22-38.1 43.5zm157.4-16.8c25.2 11.7 45.4 33.2 54.6 59.4c14.2-7 25.3-21.1 25.6-37.4c1.4-21.3-15.5-41.6-36.8-44.1c-17.4-2.8-34.8 7.1-43.4 22.1zm-67.1 5.7c-24.7 5.8-47 22-58.9 44.5c-16.9 30.2-11.3 70.4 12.6 95.3c30.1 33.3 84.7 38.9 121.5 13.6c31.8-20.3 47.3-63.3 33.1-98.7c-15.1-42.5-65.4-65.9-108.3-54.7zm119.6 117.7c-9.8 24.2-29.2 44.2-53.1 54.8c-30.2 13.7-66.7 12.2-95.8-3.8c3.4 6.6 2.5 13.3-2.8 18.4c2.5 9.3 5.7 20.8 15.9 24.3c9.9 1.7 19.9-0.4 29.5-2.3c28.3-6.6 56.7-19.2 75.3-42.2c8.5 1.1 14.2-5.7 12.9-14c12.2 0 24.2-5.8 31.5-15.6c5.4-9 5.8-19.8 7.2-29.9c-6.7 3.9-13.5 7.4-20.6 10.3zm-91.4-79.6c7.2-3.3 16.3 3.3 15.2 11.2c-0.3 8.4-11.1 13.3-17.6 8.1c-6.9-4.7-5.5-16.6 2.4-19.3zm-64.4 1.1c6.2-4.4 15.9-0.2 17 7.4c1.8 8-7.1 15.6-14.7 12.4c-8.4-2.5-9.9-15.3-2.3-19.8zm23.5 24.7c19.4-5.3 41.7-2.3 57.6 10.5c9.6 7.7 16 20.3 13.8 32.8c-2.3 15-15 26.2-28.6 31.5c-21.9 8.5-49.1 5.4-66.5-11c-9.4-8.7-14.1-22.6-9.9-35c4.7-14.9 19-24.8 33.6-28.8zm-17.7 11.8c-4.2 9 2.4 19.2 11.4 21.7c-1.6 4.4-2.7 9.1-5.5 13c-3.5 4.4-9.4-0.3-13.7-0.6c2.9 2.9 5.3 7.1 9.7 7.6c4.6 0.7 7.6-3.4 10.7-6c11.9 12.3 37.2 10.7 42.2-7.7c-7.5 6.6-16.9 13.9-27.6 10.1c-8.5-0.9-11.2-9.5-13.5-16.3c8.3-1.9 17.9-6.3 19.7-15.5c0.8-6.7-6.7-10-12-11.2c-7.2-1.3-17-2.1-21.4 4.9zm32.5 253.9c7.9-5.7 18.2-6 27.5-6.6c12.1 0.1 25.6 0.2 35.3 8.3c-5.3 8.8-16.5 8.5-25.4 9.3c-11.2 0.2-23 0.7-33.6-3.2c-3-1-7.6-4.9-3.8-7.8z" />
	</g>
</svg>