<?xml version="1.0" encoding="utf-8"?>
<!-- Generator: Adobe Illustrator 23.1.0, SVG Export Plug-In . SVG Version: 6.00 Build 0)  -->
<svg version="1.1" id="svg2237" xmlns:svg="http://www.w3.org/2000/svg"
	 xmlns="http://www.w3.org/2000/svg" xmlns:xlink="http://www.w3.org/1999/xlink" x="0px" y="0px" viewBox="0 0 600 109"
	 style="enable-background:new 0 0 600 109;" xml:space="preserve">
<style type="text/css">
	.st0{fill-rule:evenodd;clip-rule:evenodd;fill:#FF0000;}
	.st1{fill-rule:evenodd;clip-rule:evenodd;fill:#FFFFFF;}
</style>
<g>
	<rect class="st0" width="185.4" height="109"/>
	<path class="st1" d="M166.7,41.7c-14.6-6.3-39.2-10.4-63.5-12.5c-25.2-2.5-58.7-3.2-77.2-3l39.5,39.5c7.8-0.6,15.1-1.2,22.1-1.9
		L56,32.2h3.4l3.4,0l7.1,0.1l7.3,0.2l7.5,0.3l7.6,0.4l7.6,0.5l7.6,0.6l7.5,0.7l7.4,0.8l7.2,0.9l3.5,0.5l3.4,0.6l3.3,0.5L143,39
		l3.2,0.6l3.1,0.7l3,0.7l2.8,0.8l2.7,0.8l2.6,0.8l2.4,0.9l2.3,0.9c2.2,0.9,4,1.7,4,3.3c0,2.2-4.8,3.8-9.3,5.2
		c-17.5,5.5-48.8,11.8-94.6,15.1L22.6,26.2c-4.1,0.1-7.6,0.2-10.1,0.4l43.9,43.8L44.5,87.8c70.9-11.2,103-22.4,117.2-29
		c3.1-1.4,11.8-5.3,11.8-10.5C173.5,45.3,170.6,43.4,166.7,41.7z"/>
</g>
<g>
	<path class="st0" d="M600,61.7V26.3c0-0.6-0.4-1-0.9-1h-5.5c-0.5,0-1,0.4-1,1v37.3c0,0.8,0,2.8,0,4.3c0,5.2-3.5,9.4-10.7,9.4
		c-8.1,0-10.2-5.1-10.8-8.2c-0.3-1.7-0.3-3.3-0.3-4.8c0-0.1,0-37.2,0-37.2c0-1.1-0.8-1.9-1.7-1.9h-9.1c-1,0-1.7,0.8-1.7,1.9v33
		c0,2.4,0,5.2,0.5,8c1.3,7.1,7.7,14.9,21.6,14.9c11.7,0,19-3.7,19.6-15C600,66,600,65,600,61.7z"/>
	<path class="st0" d="M410.3,25.2h-9.1c-1,0-1.7,0.9-1.7,1.9v22.2h-19.3V27.1c0-1.1-0.8-1.9-1.7-1.9h-9.2c-0.9,0-1.7,0.9-1.7,1.9
		v53.3c0,1.1,0.8,2,1.7,2h9.2c0.9,0,1.7-0.9,1.7-2v-25h19.3v25c0,1.1,0.8,2,1.7,2h9.1c1,0,1.7-0.9,1.7-2V27.1
		C412,26.1,411.3,25.2,410.3,25.2z"/>
	<path class="st0" d="M349.1,25.2h-9.5c-1,0-1.7,0.9-1.7,1.9v53.3c0,1.1,0.8,2,1.7,2h9.5h0.1l0.1,0l0.1,0l0,0l0.1,0l0.1,0l0.1,0l0,0
		l0.1,0l0,0l0.1,0l0,0l0.1-0.1l0-0.1l0-0.1l0.1-0.1l0-0.1l0-0.1l0-0.1l0-0.1l0-0.1l0-0.1l0-0.1v-0.1l0-0.1l0-0.1V81l0-0.1v-0.1v-0.1
		v-0.1v-0.1V27.1C350.8,26.1,350.1,25.2,349.1,25.2z"/>
	<path class="st0" d="M248.1,25.2h-22.7c-1,0-1.7,0.9-1.7,1.9v53.3c0,1.1,0.7,1.9,1.7,1.9h22.5c13.3,0,23.7-8.1,23.7-28.7
		C271.5,33.5,261.2,25.2,248.1,25.2z M244.8,76.3h-8.5V31.4h8.5c10.3,0,13.6,6.8,13.6,22.3C258.4,69.4,255.3,76.3,244.8,76.3z"/>
	<path class="st0" d="M309.4,27.1c-0.3-1.1-1.3-1.9-2.3-1.9h-9.4c-0.5,0-1.1,0.5-1.3,1.1l-18.6,55.1c-0.2,0.6,0.1,1,0.6,1h5.6
		c0.5,0,1.1-0.4,1.3-1l4.6-14.1H310l4.3,13.1c0.3,1.1,1.5,1.9,2.4,1.9h10.2c0.9,0,1.4-0.8,1.1-1.8L309.4,27.1z M291.9,61.3l8-24.6
		l8,24.6H291.9z"/>
	<path class="st0" d="M452.1,27.1c-0.3-1.1-1.5-1.9-2.4-1.9h-9.4c-0.5,0-1.1,0.4-1.3,1l-18.5,55.2c-0.2,0.6,0,1,0.5,1h5.7
		c0.5,0,1.1-0.4,1.3-1l4.6-14.1h20.1l4.3,13.1c0.3,1.1,1.5,1.9,2.4,1.9h10.1c0.9,0,1.5-0.9,1.1-1.9L452.1,27.1z M434.6,61.3l8-24.6
		l8,24.6H434.6z"/>
	<path class="st0" d="M510.1,25.3h-42.8c-0.5,0-0.9,0.4-0.9,1v4.1c0,0.6,0.4,1.1,0.9,1.1h15.2v49c0,1.1,0.8,2,1.7,2h9.2
		c1,0,1.7-0.9,1.7-2v-49h14.8c0.6,0,1.1-0.5,1.1-1.1v-4.1C511.2,25.7,510.7,25.3,510.1,25.3z"/>
	<path class="st0" d="M533.7,47.4c-4.3-3-8.6-6-9.7-9.4c-0.8-2.6,0.3-4.3,0.9-5.2c1.1-1.5,3.6-2.6,6.9-2.6c2.9,0,5.9,0.5,9.1,2.1
		c0.7,0.3,2.1,1,3.5,1.8h0h0v0h0h0h0h0h0h0h0h0l0,0h0v0h0v0h0v0l0,0l0,0v0v0l0,0v0v0l0,0v0v0v0v0v0v-4.9c0-0.7-0.3-0.9-0.9-1.2
		c0,0-1.2-0.7-4-1.5c-2.2-0.6-5.6-1.2-9.1-1.2c-8.4,0-12.3,2.8-14.7,6c-2.4,3.2-3.3,7.2-2.5,11.6c1.3,7.3,7.2,11.8,13.1,16.3
		c4.6,3.5,9.1,6.1,10.5,10.6c0.6,1.8,0.4,4.6-1.2,6.1c-1.7,1.6-3.6,2.2-6.7,2.2c-3.5,0-8-0.8-12.6-2.9c-0.8-0.4-1.8-0.9-1.8-0.9
		c-0.5-0.2-0.9,0.1-0.9,0.6v5.1c0,0.6,0.4,1,0.9,1.3c0,0,0.6,0.3,1.3,0.5c3.9,1.3,8.3,2,13.2,2c8.3,0,12.7-3,15.1-5.6
		c2.7-3,4-7.5,3-12.9C546.5,56,539.4,51.4,533.7,47.4z"/>
</g>
</svg>
