<svg version="1.2" xmlns="http://www.w3.org/2000/svg" viewBox="0 0 485 343" width="485" height="343">
	<title>새 프로젝트</title>
	<style>
		.s0 { fill: #02983b } 
		.s1 { fill: #004097 } 
	</style>
	<g id="&lt;Group&gt;">
		<g id="&lt;Group&gt;">
			<g id="&lt;Group&gt;">
				<path id="&lt;Path&gt;" class="s0" d="m307.8 57.8h-134.3v-45.6h134.3z"/>
				<path id="&lt;Path&gt;" class="s1" d="m293.6 112.8l-120.1 62.2v-48.4l134.3-68.8v30.3c0 10.2-4.4 19.6-14.2 24.7z"/>
			</g>
			<path id="&lt;Path&gt;" class="s0" d="m464.4 57.8h-137.4v-45.6h137.4z"/>
			<g id="&lt;Group&gt;">
				<path id="&lt;Path&gt;" class="s0" d="m154.3 57.8h-134.3v-45.6h134.3z"/>
				<path id="&lt;Path&gt;" class="s1" d="m140 112.8l-120 62.2v-48.4l134.3-68.8v30.3c0 10.2-4.4 19.6-14.3 24.7z"/>
			</g>
			<path id="&lt;Path&gt;" class="s1" d="m327 97.6v23.4c0 12.2 10 22.2 22.2 22.2h115.2v-45.6z"/>
		</g>
		<g id="&lt;Group&gt;">
			<path id="&lt;Path&gt;" class="s1" d="m276 280h13.1v-80.7h-13.1z"/>
			<path id="&lt;Compound Path&gt;" fill-rule="evenodd" class="s1" d="m186.8 199.3h13v67.1c0 10.7-12 19.4-31.9 19.4-19.9 0-31.9-8.7-31.9-19.4 0-10.7 12-19.4 31.9-19.4 7.5 0 13.8 1.3 18.9 3.4v-13.1h-22.9v-9.3h22.9v-8.6h-19.8c-9.4 20.2-40.6 26.2-40.6 26.2l-3.5-7.4c26.9-7.9 32.7-21.7 33.5-26.4h-31v-9.3h44.3v4.7q0 1.5-0.1 3h17.2zm0 67c0-5.6-7.1-10.1-18.9-10.1-11.8 0-18.9 4.5-18.9 10.1 0 5.6 7.1 10.1 18.9 10.1 11.8 0 18.9-4.5 18.9-10.1z"/>
			<path id="&lt;Path&gt;" class="s1" d="m348.9 266.3v-19.5h25.4v-9.3h-51.2v-25.7h51.2v-9.3h-64.3v36.8c0 4.1 3.3 7.5 7.4 7.5h18.4v19.5h-32.8v9.3h78.7v-9.3z"/>
			<path id="&lt;Path&gt;" class="s1" d="m217.2 211.8h30.7c-1.6 13-8.7 34.3-34.1 46.5l4.2 8.2c39.3-15 44.1-50.4 44.1-61.2v-2.8h-44.9z"/>
		</g>
		<g id="&lt;Group&gt;">
			<path id="&lt;Path&gt;" class="s1" d="m304.7 329.2h5.4v-25.7h-5.4z"/>
			<path id="&lt;Path&gt;" class="s1" d="m314 318.5h9.8v-4.3h-9.8z"/>
			<path id="&lt;Compound Path&gt;" fill-rule="evenodd" class="s1" d="m349.5 316.4c0 8.5-5 12.8-14.8 12.8h-7v-25.7h7c9.8 0 14.8 4.4 14.8 12.9zm-13.8-8.6h-2.6v17.1h2.6c5.3 0 8.2-4.4 8.2-8.5 0-4.2-2.9-8.6-8.2-8.6z"/>
			<path id="&lt;Compound Path&gt;" fill-rule="evenodd" class="s1" d="m377.5 316.3c0 8.2-4.8 13.3-12.5 13.3-7.9 0-12.6-5-12.6-13.3 0-8.3 4.7-13.2 12.6-13.2 7.7 0 12.5 5.1 12.5 13.2zm-12.5-8.9c-5.2 0-7 4.8-7 8.9 0 4.3 1.8 9 7 9 5.1 0 6.9-4.7 6.9-9 0-4.1-1.8-8.9-6.9-8.9z"/>
			<path id="&lt;Path&gt;" class="s1" d="m289.9 314.4v4.3h5.3v6.3q-1.3 0.3-3.1 0.3c-5.1 0-8.5-3.6-8.5-8.9 0-5.4 3.6-9 9-9 2.3 0 4.7 0.5 6.5 1.3l0.6 0.3v-4.8h-0.2c-2.4-0.8-4.7-1.1-7.4-1.1-8.8 0-14.1 5.1-14.1 13.7 0 8.1 5.1 12.8 14.1 12.8 2.3 0 4.9-0.4 8.2-1.3h0.1v-13.9z"/>
			<path id="&lt;Path&gt;" class="s1" d="m167.9 314l-5.8-10.4-0.1-0.1h-6.3l9.4 15.6v10.1h5.4v-10.2l9.2-15.5h-5.8z"/>
			<path id="&lt;Path&gt;" class="s1" d="m186.8 318.1h9.9v-4.3h-9.9v-6h9.9v-4.3h-15.3v25.7h15.3v-4.3h-9.9z"/>
			<path id="&lt;Compound Path&gt;" fill-rule="evenodd" class="s1" d="m224.7 316.3c0 8.2-4.8 13.3-12.6 13.3-7.8 0-12.5-5-12.5-13.3 0-8.3 4.7-13.2 12.5-13.2 7.8 0 12.6 5.1 12.6 13.2zm-5.6 0c0-4.1-1.8-8.9-7-8.9-5.1 0-6.9 4.8-6.9 8.9 0 4.3 1.8 9 6.9 9 5.2 0 7-4.7 7-9z"/>
			<path id="&lt;Path&gt;" class="s1" d="m244.1 322.1l-9.4-18.5-0.1-0.1h-6.5v25.7h5.2v-18.6l9.5 18.5v0.1h6.5v-25.7h-5.2z"/>
			<path id="&lt;Path&gt;" class="s1" d="m144.2 314.4v4.3h5.4v6.3q-1.4 0.3-3.2 0.3c-5 0-8.4-3.6-8.4-8.9 0-5.4 3.5-9 9-9 2.2 0 4.7 0.5 6.5 1.3l0.5 0.3v-4.8h-0.1c-2.4-0.8-4.8-1.1-7.5-1.1-8.8 0-14 5.1-14 13.7 0 8.1 5.1 12.8 14 12.8 2.4 0 4.9-0.4 8.3-1.3h0.1v-13.9z"/>
			<path id="&lt;Path&gt;" class="s1" d="m264.6 314.4v4.3h5.4v6.3q-1.4 0.3-3.2 0.3c-5.1 0-8.5-3.6-8.5-8.9 0-5.4 3.6-9 9.1-9 2.2 0 4.7 0.5 6.4 1.3l0.6 0.3v-4.8h-0.1c-2.4-0.8-4.8-1.1-7.5-1.1-8.8 0-14.1 5.1-14.1 13.7 0 8.1 5.2 12.8 14.1 12.8 2.3 0 4.9-0.4 8.2-1.3h0.1v-13.9z"/>
		</g>
	</g>
</svg>