<svg version="1.1" id="Layer_1" xmlns="http://www.w3.org/2000/svg" xmlns:xlink="http://www.w3.org/1999/xlink" x="0px" y="0px" viewBox="0 0 91.4 91.4" style="enable-background:new 0 0 91.4 91.4;" xml:space="preserve">
 <style type="text/css">
  .st0{fill:#ED1D24;}
	.st1{fill:#FFFFFF;}
 </style>
 <g>
  <g>
   <path class="st0" d="M64.5,83.6C54.1,94,37.3,94,26.9,83.6l-19-19c-10.4-10.4-10.4-27.2,0-37.6l19-19c10.4-10.4,27.2-10.4,37.6,0
			l19,19C94,37.3,94,54.1,83.6,64.5L64.5,83.6z">
   </path>
  </g>
  <g>
   <path class="st1" d="M34.6,73.6c-1.4,0-2.7-1.4-2.7-2.7c0-0.9,0.5-1.4,0.9-1.8c0.5-0.5,1.4-0.9,1.8-0.9c1.4,0,2.7,1.4,2.7,2.7
			S35.9,73.6,34.6,73.6L34.6,73.6">
   </path>
  </g>
  <g>
   <path class="st1" d="M44.6,21.9c-1.4,0-2.7,0.5-3.6,1.4c-2.3,2.3-3.2,6.3-3.2,12.2c0,7.3,1.8,21.3,7.7,29c0.9,1.4,1.8,2.3,3.2,2.7
			c0.9,0.5,2.3,1.4,4.1,1.4c0.5,0,0.9,0,1.4,0c3.2-0.9,7.3-4.5,10.4-9.1c0.5-0.9,1.4-1.4,2.3-1.4c0.5,0,0.9,0,1.4,0.5
			c0.5,0.5,0.9,0.9,0.9,1.4s0,1.4-0.5,1.8c-4.1,6.3-9.1,10.4-13.6,11.3l0,0c-0.9,0-1.8,0.5-2.7,0.5c-3.2,0-5-1.4-6.8-2.3
			c-1.4-0.9-2.7-2.3-4.1-4.1c-8.2-10.4-8.6-29.9-8.6-31.7c0-5,0.5-12.2,4.5-16.3c1.8-1.8,4.5-2.7,7.3-2.7H45c2.7,0,5.4,0.9,7.3,2.7
			c4.1,4.1,5,10.9,4.5,16.3c0,5.4-0.9,15.9-6.8,24.9c-0.5,0.9-1.4,1.4-2.3,1.4c-0.5,0-0.9,0-1.4-0.5c-1.4-0.9-1.4-2.3-0.9-3.6
			c4.1-6.3,5.9-13.6,5.9-22.7c0-5.9-0.9-10.4-3.2-12.2C47.7,22.3,46.8,21.9,44.6,21.9L44.6,21.9z">
   </path>
  </g>
 </g>
</svg>