<svg xmlns="http://www.w3.org/2000/svg" xmlns:xlink="http://www.w3.org/1999/xlink" width="230" height="119" viewBox="0 0 230 119"><defs><clipPath id="a"><rect width="230" height="119" transform="translate(0 2)" fill="none"/></clipPath></defs><g transform="translate(0 -2)"><g clip-path="url(#a)"><g transform="translate(0 2)"><path d="M24.087.911l5.178,12.378L34.107.911h4.274v1.1h-.694c-.548,0-1.137.126-1.053,1.389l.652,11.178c.063,1.011.274,1.39,1.264,1.39h.674v1.094H32.991V15.963h.527c.674,0,1.305-.105,1.242-1.39l-.548-9.641L29.455,17.057H28.129L23.055,4.974l-.526,9.6c-.063,1.179.441,1.39,1.242,1.39h.694v1.094H19.014V15.963h.694c1.011,0,1.242-.463,1.285-1.39l.61-11.2c.063-1.2-.463-1.368-1.053-1.368h-.674V.911Z" transform="translate(-1.001 -0.048)" fill="#005bac"/><path d="M47.452,5.6c3.978,0,5.726,3.158,5.726,6.02,0,2.842-1.726,6.021-5.726,6.021-3.915,0-5.726-3.073-5.726-6.021,0-2.968,1.81-6.02,5.726-6.02m.021,10.442c3.158,0,3.263-3.536,3.263-4.379,0-.61-.021-4.484-3.305-4.484-3.263,0-3.263,3.747-3.263,4.463.021.82.148,4.4,3.305,4.4" transform="translate(-2.196 -0.295)" fill="#005bac"/><path d="M59.635,5.955v1.1c-1.116,0-1.2.126-1.2.441a2.006,2.006,0,0,0,.127.442l2.21,5.936,2.21-5.936a1.351,1.351,0,0,0,.084-.422c0-.462-.358-.462-1.2-.462v-1.1H66.1v1.1A1.252,1.252,0,0,0,64.624,8L60.961,17.87H59.95L56.056,7.85a1.507,1.507,0,0,0-1.642-.8v-1.1Z" transform="translate(-2.864 -0.313)" fill="#005bac"/><path d="M72.491,14.545c0,1.2.315,1.39,1.516,1.39v1.094H68.681V15.935c1.2,0,1.516-.189,1.516-1.39V7.956c0-.421-.021-.968-.716-.968a3.008,3.008,0,0,0-.631.084l-.105-1.1,3.747-.652ZM72.87,1.935A1.548,1.548,0,1,1,71.334.378,1.551,1.551,0,0,1,72.87,1.935" transform="translate(-3.615 -0.02)" fill="#005bac"/><path d="M80.224,7.094A5.333,5.333,0,0,1,84.076,5.6c3.41,0,3.431,2.78,3.431,3.579V14.82c0,1.2.316,1.39,1.516,1.39V17.3H83.8V16.209c1.136,0,1.41-.253,1.41-1.39V9.3a1.656,1.656,0,0,0-1.831-1.873,3.151,3.151,0,0,0-3.158,2.5V14.82c0,1.116.253,1.39,1.411,1.39V17.3H76.414V16.209c1.2,0,1.516-.189,1.516-1.39V8.252c0-.336,0-.989-.694-.989a3.413,3.413,0,0,0-.653.084l-.084-1.1L80.224,5.6Z" transform="translate(-4.022 -0.295)" fill="#005bac"/><path d="M91.3,19.541a3.537,3.537,0,0,1,2.148-3.052A1.494,1.494,0,0,1,92.44,15.12c0-1.158.906-1.831,1.79-2.484A3.542,3.542,0,0,1,92.1,9.289c0-2.379,1.916-3.705,4.189-3.705a4.665,4.665,0,0,1,2.484.653,5.359,5.359,0,0,1,2.715-.927,1.087,1.087,0,0,1,1.2,1.116.875.875,0,0,1-.884.884c-.169,0-.906-.168-1.074-.168a1.426,1.426,0,0,0-.758.252,4.084,4.084,0,0,1,.506,1.916c0,1.853-1.326,3.621-4.084,3.726-.842.337-1.557.906-1.557,1.369s.61.463,1.578.5c2.758.084,5.726.189,5.726,3.263,0,2.653-2.632,4.463-6.315,4.463-2.694,0-4.526-1.137-4.526-3.094m1.874-.063c0,.821,1.011,1.664,2.821,1.664,1.957,0,4.126-1.137,4.126-2.673,0-1.474-1.852-1.558-4.189-1.664-.842.4-2.758,1.284-2.758,2.673m5.052-10.1c0-1.747-1.011-2.253-1.936-2.253a1.909,1.909,0,0,0-1.958,2.105c0,2.063,1.39,2.253,1.958,2.253a1.907,1.907,0,0,0,1.936-2.105" transform="translate(-4.806 -0.28)" fill="#005bac"/><path d="M115.82,2.133V5.754h2.989v1.6H115.82v7.262c0,.274,0,1.01.884,1.01a1.636,1.636,0,0,0,1.326-.9l1.073,1.242a3.994,3.994,0,0,1-3.136,1.495c-2.316,0-2.442-1.81-2.442-2.78V7.354h-1.6V6.112c2.042-.316,2.442-2.8,2.568-3.979Z" transform="translate(-5.892 -0.112)" fill="#005bac"/><path d="M125.313,6.737a5.479,5.479,0,0,1,3.831-1.431c3.431,0,3.452,2.758,3.452,3.6v5.622c0,1.2.316,1.389,1.516,1.389v1.1h-5.22v-1.1c1.136,0,1.41-.253,1.41-1.389V9.031a1.8,1.8,0,0,0-1.809-2.063,3.244,3.244,0,0,0-3.179,2.7v4.863c0,1.115.253,1.389,1.411,1.389v1.1H121.5v-1.1c1.2,0,1.516-.189,1.516-1.389V2.653c0-.337,0-.968-.694-.968a2.3,2.3,0,0,0-.653.084l-.084-1.1L125.313,0Z" transform="translate(-6.396)" fill="#005bac"/><path d="M145.971,14.946a5.241,5.241,0,0,1-4.694,2.7c-3.242,0-5.263-2.4-5.263-5.81,0-3.789,2.463-6.232,5.368-6.232,1.831,0,4.673,1.073,4.694,5.894h-7.641c-.021,2.653,1.2,4.5,3.326,4.5a3.149,3.149,0,0,0,2.863-1.978Zm-2.4-5.073c0-.674-.21-2.694-2.294-2.694A2.77,2.77,0,0,0,138.5,9.873Z" transform="translate(-7.16 -0.295)" fill="#005bac"/><path d="M168.038,7.71V3.395c0-.758-.021-1.39-1.263-1.39H166.1V.911h6.4V2.005h-.694c-1.179,0-1.264.589-1.264,1.39V14.573c0,.8.084,1.389,1.264,1.389h.694v1.1h-6.4v-1.1h.674c1.242,0,1.263-.674,1.263-1.389V9.289h-7.495v5.284c0,.821.063,1.389,1.264,1.389h.674v1.1h-6.4v-1.1h.694c1.2,0,1.263-.61,1.263-1.389V3.395c0-.8-.063-1.39-1.263-1.39h-.694V.911h6.4V2.005h-.674c-1.179,0-1.264.548-1.264,1.39V7.71Z" transform="translate(-8.216 -0.048)" fill="#005bac"/><path d="M184.838,14.946a5.241,5.241,0,0,1-4.694,2.7c-3.242,0-5.263-2.4-5.263-5.81,0-3.789,2.463-6.232,5.368-6.232,1.831,0,4.673,1.073,4.694,5.894H177.3c-.021,2.653,1.2,4.5,3.326,4.5a3.149,3.149,0,0,0,2.863-1.978Zm-2.4-5.073c0-.674-.21-2.694-2.294-2.694a2.77,2.77,0,0,0-2.779,2.694Z" transform="translate(-9.206 -0.295)" fill="#005bac"/><path d="M194.682,8.547c0-1.011-.547-1.39-1.831-1.39-1.474,0-1.874.4-2.126.968-.211.442-.422.968-1.179.968a1.028,1.028,0,0,1-1.073-1.031c0-1.242,1.768-2.463,4.442-2.463,3.957,0,4.062,2.4,4.062,3.389v6.084c0,.295.021.7.379.7.232,0,.506-.316.758-.906l.99.674c-.253.526-1.011,2.105-2.632,2.105a1.636,1.636,0,0,1-1.705-1.473,6.091,6.091,0,0,1-3.936,1.473c-3.032,0-3.305-2.231-3.305-2.9,0-2.022,1.579-3.032,3.389-3.536.906-.253,1.811-.463,3.769-.927Zm0,3.368c-3.747.694-4.758,1.073-4.758,2.4a1.524,1.524,0,0,0,1.516,1.6,4.729,4.729,0,0,0,3.242-1.684Z" transform="translate(-9.871 -0.295)" fill="#005bac"/><path d="M205.024,14.82c0,1.2.315,1.389,1.537,1.389v1.1h-5.347v-1.1c1.2,0,1.537-.189,1.537-1.389V8.252c0-.548-.084-.968-.736-.968a2.811,2.811,0,0,0-.632.063L201.3,6.252l3.726-.653V6.778A4.417,4.417,0,0,1,208.056,5.6c1.242,0,1.664.674,1.664,1.242a1.168,1.168,0,0,1-1.2,1.179c-.315,0-.379-.043-.906-.379a.834.834,0,0,0-.484-.127,2.511,2.511,0,0,0-2.105,1.621Z" transform="translate(-10.592 -0.295)" fill="#005bac"/><path d="M215.842,2.133V5.754h2.989v1.6h-2.989v7.262c0,.274,0,1.01.884,1.01a1.636,1.636,0,0,0,1.326-.9l1.074,1.242a4,4,0,0,1-3.137,1.495c-2.315,0-2.442-1.81-2.442-2.78V7.354h-1.6V6.112c2.043-.316,2.442-2.8,2.568-3.979Z" transform="translate(-11.157 -0.112)" fill="#005bac"/></g><g transform="translate(0 0.244)"><path d="M117.565,78.5H132.6V95.951h10.909V52.261H132.6V68.786H117.565V52.261H106.657v43.69h10.908Z" transform="translate(-5.614 -2.751)" fill="#005bac"/><path d="M164.806,95.951h10.908V61.97h12.927V52.261H151.849V61.97h12.957Z" transform="translate(-7.993 -2.751)" fill="#005bac"/><path d="M75.3,96.663A22.564,22.564,0,1,0,52.541,74.1,22.687,22.687,0,0,0,75.3,96.663m0-35.194A12.641,12.641,0,1,1,63.137,74.1,12.418,12.418,0,0,1,75.3,61.468" transform="translate(-2.766 -2.713)" fill="#005bac"/><path d="M217.494,43.039A22.563,22.563,0,1,0,240.251,65.6a22.686,22.686,0,0,0-22.757-22.562m.2,35.194A12.641,12.641,0,1,1,229.859,65.6,12.418,12.418,0,0,1,217.7,78.233" transform="translate(-10.251 -2.266)" fill="#005bac"/><path d="M113.137,116.687c-18.168,0-34.061-4.1-47.532-11.451H48.143C65.784,117.667,87.382,125.2,113.157,125.2c33.242,0,63.277-12.4,84.775-32.645h-6.155c-18.315,15.144-44.047,24.137-78.641,24.137" transform="translate(-2.534 -4.872)" fill="#e50012"/><path d="M32.244,74.514c9.257-2.935,13.61-10,13.61-17.608,0-10.511-8.373-19.256-23.908-19.162H0V99.932H11.347V47.454H21.731c7.835,0,12.434,3.917,12.434,9.452,0,5.706-4.6,9.538-12.434,9.538h-9.7c7.65,11.994,17.78,24.219,30.267,33.488H58.907A97.68,97.68,0,0,1,32.244,74.514" transform="translate(0 -1.987)" fill="#005bac"/></g></g></g></svg>