<?xml version="1.0" encoding="UTF-8" standalone="no"?>
<svg
   xmlns:dc="http://purl.org/dc/elements/1.1/"
   xmlns:cc="http://creativecommons.org/ns#"
   xmlns:rdf="http://www.w3.org/1999/02/22-rdf-syntax-ns#"
   xmlns:svg="http://www.w3.org/2000/svg"
   xmlns="http://www.w3.org/2000/svg"
   version="1.1"
   id="svg23620"
   viewBox="0 0 500.00001 127.81954"
   height="127.81953"
   width="500">
  <defs
     id="defs23622" />
  <metadata
     id="metadata23625">
    <rdf:RDF>
      <cc:Work
         rdf:about="">
        <dc:format>image/svg+xml</dc:format>
        <dc:type
           rdf:resource="http://purl.org/dc/dcmitype/StillImage" />
        <dc:title></dc:title>
      </cc:Work>
    </rdf:RDF>
  </metadata>
  <g
     transform="translate(-386.49865,-570.65354)"
     id="layer1">
    <path
       id="path23398"
       style="fill:#01519b;fill-opacity:1;fill-rule:nonzero;stroke:none"
       d="m 479.54803,600.62209 77.31054,0 0,-24.48053 -77.31054,0 0,24.48053 z" />
    <g
       transform="matrix(4.0726202,0,0,-4.0726202,556.85857,692.96468)"
       id="g23400">
      <path
         id="path23402"
         style="fill:#01519b;fill-opacity:1;fill-rule:nonzero;stroke:none"
         d="m 0,0 -18.983,0 0,18.233 18.983,0 0,-6.021 -12.759,0 0,-6.203 12.759,0" />
    </g>
    <g
       transform="matrix(4.0726202,0,0,-4.0726202,473.74046,663.73955)"
       id="g23404">
      <path
         id="path23406"
         style="fill:#01519b;fill-opacity:1;fill-rule:nonzero;stroke:none"
         d="m 0,0 c 0,-3.961 -3.213,-7.176 -7.173,-7.176 l -13.42,0 0,6.009 12.341,0 c 1.118,0 2.034,0.905 2.034,2.035 l 0,1.972 c 0,1.114 -0.916,2.029 -2.034,2.029 l -5.752,0.239 c -3.959,0 -7.172,2.358 -7.172,6.319 l 0,2.834 c 0,3.963 3.213,7.248 7.172,7.248 l 12.925,0 0,-6.012 -12.127,0 c -0.965,0 -1.747,-0.787 -1.747,-1.756 l 0,-1.056 c 0,-0.969 0.782,-1.753 1.747,-1.753 l 6.358,-0.296 C -1.427,10.697 0,6.408 0,3.396 L 0,0" />
    </g>
    <g
       transform="matrix(4.0726202,0,0,-4.0726202,720.70008,671.15987)"
       id="g23408">
      <path
         id="path23410"
         style="fill:#01519b;fill-opacity:1;fill-rule:nonzero;stroke:none"
         d="m 0,0 c 4.967,0 8.997,4.025 8.997,8.988 0,4.963 -4.03,8.985 -8.997,8.985 -4.958,0 -8.983,-4.022 -8.983,-8.985 C -8.983,4.025 -4.958,0 0,0 m -15.443,8.988 c 0,8.533 6.913,15.445 15.443,15.445 8.53,0 15.453,-6.912 15.453,-15.445 C 15.453,0.457 8.53,-6.461 0,-6.461 c -8.53,0 -15.443,6.918 -15.443,15.449" />
    </g>
    <g
       transform="matrix(4.0726202,0,0,-4.0726202,671.20553,679.2766)"
       id="g23412">
      <path
         id="path23414"
         style="fill:#00aaad;fill-opacity:1;fill-rule:nonzero;stroke:none"
         d="m 0,0 c -2.925,-2.767 -6.964,-4.462 -11.463,-4.462 -8.529,0 -15.439,6.912 -15.439,15.443 0,8.533 6.91,15.445 15.439,15.445 4.505,0 8.525,-1.711 11.459,-4.477 -1.439,-1.589 -2.562,-3.421 -3.287,-5.477 -1.897,1.893 -4.959,3.494 -8.172,3.494 -4.961,0 -8.984,-4.022 -8.984,-8.985 0,-4.962 4.023,-8.988 8.984,-8.988 3.2,0 6.269,1.591 8.172,3.485 C -2.577,3.451 -1.411,1.563 0,0" />
    </g>
    <g
       transform="matrix(4.0726202,0,0,-4.0726202,854.44085,576.14156)"
       id="g23416">
      <path
         id="path23418"
         style="fill:#01519b;fill-opacity:1;fill-rule:nonzero;stroke:none"
         d="M 0,0 -7.184,-14.356 -13.975,0 l -7.251,0 14.042,-28.417 8.212,16.15 0.005,-16.418 6.593,0 0,28.685" />
    </g>
  </g>
</svg>
