<svg xmlns="http://www.w3.org/2000/svg" width="439.717" height="72.218" viewBox="0 0 439.717 72.218" xmlns:xlink="http://www.w3.org/1999/xlink">
 <g transform="translate(-196.925 -257.984)">
  <path d="M248.414,291.291c-10.942,28.94-17.045,33.86-29.465,33.439-8.631-.294-14.566-4.167-19.239-8.3l-2.785,3.082c4.084,3.9,12.9,10.422,24.465,10.677,19.732.437,31.883-9.339,41.812-36.9,5.557-15.429,9.149-24.53,17.237-28.28a22.864,22.864,0,0,1,9.288-2.1,28.012,28.012,0,0,1,15.436,4.395l1.968-3.3a36.337,36.337,0,0,0-18.973-6.01c-16.678,0-30.748,9.32-39.744,33.307Z" fill="#c3002f">
  </path>
  <path d="M328.48,294.075H305.163V270.532H292.082V323.71h13.081V297.892H328.48V323.71h13.083V270.532H328.48Z" fill="#c3002f">
  </path>
  <rect width="13.082" height="53.178" transform="translate(352.648 270.532)" fill="#c3002f">
  </rect>
  <path d="M400.919,296.409c-5.913,19.633-9.388,25.711-17.466,25.576a20.334,20.334,0,0,1-11.777-4.392l-2.1,3.016a28.309,28.309,0,0,0,15.778,5.66c13.8.464,21.777-8.418,27.511-23.716,1.087-2.9,2.21-6.205,3.231-9.67,4.475-15.2,8.882-20.066,15.638-20.527a13.632,13.632,0,0,1,8.605,2.276l1.686-3.186a20.524,20.524,0,0,0-11.688-3.168c-13.473.371-23.62,9.077-29.419,28.131Z" fill="#c3002f">
  </path>
  <path d="M458.587,319.894V297.731h21.485v-3.815H458.586V274.348h24.144v-3.816H445.506V323.71h37.224v-3.816Z" fill="#c3002f">
  </path>
  <rect width="13.081" height="53.179" transform="translate(492.464 270.531)" fill="#c3002f">
  </rect>
  <path d="M605.929,273.009a17.244,17.244,0,0,1,7.795,1.63c7.23,3.339,9.836,11.451,9.836,22.481s-2.606,19.145-9.836,22.483a19.458,19.458,0,0,1-15.592,0c-7.229-3.338-9.834-11.452-9.834-22.483s2.605-19.142,9.834-22.481A17.256,17.256,0,0,1,605.929,273.009Zm0,51.555a41.035,41.035,0,0,0,11.648-1.6c13-4.2,19.065-13.86,19.065-25.839s-6.069-21.639-19.065-25.838a43.08,43.08,0,0,0-23.3,0c-12.995,4.2-19.062,13.862-19.062,25.838s6.067,21.641,19.063,25.839A41.056,41.056,0,0,0,605.929,324.564Z" fill="#c3002f">
  </path>
  <path d="M516.632,270.531h23.8c25.9,0,28.948,20.148,28.948,26.589s-3.049,26.59-28.948,26.59h-23.8Zm13.08,49.363h9.526c9.376,0,17.064-5.219,17.064-22.774s-7.688-22.772-17.064-22.772h-9.526Z" fill="#c3002f">
  </path>
 </g>
</svg>