<svg xmlns="http://www.w3.org/2000/svg" width="300" height="40.02"><path d="m211.16 37.57c-3.81 0-6.8-1.51-9.15-4.62-2.35-3.1-3.54-7.26-3.54-12.32 0-5.08 1.2-9.19 3.57-12.23 2.35-3 5.52-4.52 9.43-4.52 3.72 0 6.68 1.5 9.03 4.59 2.35 3.09 3.54 7.26 3.54 12.4 0 4.77-1.22 8.8-3.61 11.99-2.37 3.13-5.49 4.72-9.28 4.72m-69.23 0.02c1.99-5.65 7.49-21.29 8.2-23.33 0.81 2.2 7.08 19.55 8.45 23.33l-16.65 0zm-53.29-0.02c-3.8 0-6.79-1.51-9.15-4.62-2.34-3.11-3.53-7.26-3.53-12.32 0-5.08 1.2-9.19 3.58-12.23 2.38-3.04 5.45-4.52 9.43-4.52 3.71 0 6.67 1.5 9.02 4.59 2.35 3.09 3.54 7.26 3.54 12.4 0 4.77-1.22 8.8-3.61 11.99-2.36 3.13-5.48 4.72-9.28 4.72m199.37-35.26 0 1.45 0.67 0c2.19 0 3.18 0.99 3.08 2.93-0.05 0.96-0.38 2.48-0.93 4.02 0 0-5.1 14.17-6.7 18.65-0.87-2.43-7.71-21.26-7.71-21.26-0.29-0.85-0.44-1.56-0.44-2.08 0-0.45-0.12-2.26 2.88-2.26l0.68 0 0-1.45-14.17 0 0 1.45 0.68 0c1.15 0 1.93 0.45 2.4 0.87 0.87 0.78 1.52 2.02 1.98 3.36 0 0 0.53 1.6 0.71 2.14-0.11 0.32-6.03 16.85-6.87 19.22-0.89-2.43-7.72-21.34-7.72-21.34-0.28-0.74-0.41-1.36-0.42-1.83-0.03-1.08 0.29-2.1 2.63-2.38l0.61-0.05 0-1.45-14.35 0 0 1.45 0.68 0c1.23 0 2.13 0.42 2.52 0.72 0.56 0.43 0.96 1.07 1.38 1.76 0.44 0.76 0.97 1.93 1.55 3.54l10.09 27.81-40.57 0c1.5-0.87 2.92-1.93 4.2-3.22 3.71-3.75 5.6-8.4 5.6-13.82 0-5.32-1.88-9.89-5.55-13.58-3.67-3.68-8.25-5.55-13.56-5.55-5.48 0-10.11 1.85-13.78 5.47-3.68 3.63-5.54 8.22-5.54 13.66 0 5.43 1.88 10.07 5.56 13.82 1.28 1.3 2.68 2.35 4.18 3.22l-39.93 0c0.48-1.37 9.27-26.27 9.27-26.27 0.89-2.53 1.56-3.85 2.25-5 0.96-1.6 1.98-2.41 3.49-2.53l0.64-0.03 0-1.45-12 0 0 1.45 0.67 0c2.18 0 3.18 0.99 3.08 2.93-0.05 0.96-0.38 2.48-0.93 4.02 0 0-5.09 14.17-6.69 18.65-0.88-2.43-7.71-21.26-7.71-21.26-0.29-0.85-0.44-1.56-0.44-2.08 0-0.45-0.13-2.26 2.88-2.26l0.68 0 0-1.45-14.18 0 0 1.45 0.68 0c1.17 0 1.94 0.45 2.41 0.87 0.87 0.78 1.52 2.02 1.98 3.36 0 0 0.53 1.6 0.7 2.14-0.11 0.32-6.03 16.85-6.88 19.22-0.87-2.43-7.72-21.34-7.72-21.34-0.27-0.74-0.4-1.36-0.42-1.83-0.03-1.08 0.29-2.1 2.63-2.38l0.61-0.05 0-1.45-14.34 0 0 1.45 0.67 0c1.22 0 2.14 0.42 2.52 0.72 0.57 0.43 0.96 1.07 1.38 1.76 0.44 0.76 0.97 1.93 1.56 3.53l10.09 27.82-40.57 0c1.5-0.87 2.91-1.93 4.19-3.22 3.71-3.74 5.6-8.38 5.6-13.82 0-5.32-1.87-9.9-5.55-13.58-3.69-3.68-8.25-5.55-13.56-5.55-5.48 0-10.11 1.85-13.78 5.47-3.67 3.63-5.54 8.22-5.54 13.66 0 5.43 1.88 10.07 5.56 13.82 1.28 1.3 2.68 2.35 4.18 3.22l-39.93 0c0.48-1.37 9.27-26.27 9.27-26.27 0.89-2.53 1.57-3.85 2.24-5 0.96-1.6 1.98-2.41 3.49-2.53l0.64-0.03 0-1.45-11.99 0 0 1.45 0.67 0c2.18 0 3.17 0.99 3.08 2.93-0.06 0.96-0.39 2.48-0.94 4.02 0 0-5.09 14.17-6.69 18.65-0.88-2.43-7.7-21.26-7.7-21.26-0.29-0.85-0.44-1.56-0.44-2.08 0-0.45-0.14-2.26 2.87-2.26l0.68 0 0-1.45-14.17 0 0 1.45 0.68 0c1.16 0 1.93 0.45 2.4 0.87 0.87 0.78 1.52 2.02 1.98 3.36 0 0 0.54 1.6 0.72 2.14-0.12 0.32-6.03 16.85-6.89 19.22-0.88-2.43-7.72-21.34-7.72-21.34-0.27-0.74-0.4-1.36-0.42-1.83-0.03-1.08 0.29-2.1 2.62-2.38l0.62-0.05 0-1.45-14.36 0 0 1.45 0.67 0c1.25 0 2.15 0.42 2.53 0.72 0.55 0.43 0.96 1.07 1.37 1.76 0.44 0.76 0.97 1.93 1.56 3.54l10.82 29.83 1.73 0c0 0 8.05-22.85 8.92-25.34 0.89 2.47 8.7 24.05 8.7 24.05 0 0.02 0.49 1.36 0.49 1.36l0.12 0.35 226.63 0c0 0 8.19-23.27 9.07-25.76 0.89 2.47 8.7 24.05 8.7 24.05 0 0.02 0.38 1.04 0.47 1.3l1.83 0 9.99-28.29c0.89-2.53 1.57-3.85 2.25-5 0.96-1.6 1.96-2.41 3.49-2.53l0.64-0.03 0-1.45-11.99 0z" fill="#0056a7"/></svg>