<?xml version="1.0" encoding="utf-8"?>
<!-- Generator: Adobe Illustrator 25.0.1, SVG Export Plug-In . SVG Version: 6.00 Build 0)  -->
<svg version="1.1" id="Layer_1" xmlns="http://www.w3.org/2000/svg" xmlns:xlink="http://www.w3.org/1999/xlink" x="0px" y="0px"
	 viewBox="0 0 285 59.9" style="enable-background:new 0 0 285 59.9;" xml:space="preserve">
<style type="text/css">
	.st0{fill:#231F20;}
</style>
<g>
	<path class="st0" d="M30,0v10.3h-6.6C4,10.3,0,24.8,0,35.3C0,42.9,2.3,49.6,6.5,54c3.6,3.8,8.4,5.8,14,5.8c3.8,0,6.9-0.7,9.5-2.1
		l0.1,1h12.8V0H30z M12.2,34.9c0-5,1.4-13.4,10.7-14c1.3-0.1,4.7-0.3,7.1-0.4v25.7c-1.7,1.1-4.3,2-7.3,2.1c-2.9,0.1-5.4-0.8-7.1-2.4
		C13.4,43.7,12.2,40,12.2,34.9"/>
	<path class="st0" d="M76.4,48.4c-6.9-0.1-10.6-3.8-11.8-10.3h31.1l0-0.5c0.1-4.4,0-8.1-0.1-9.7c-0.5-5.5-2.5-10.1-5.8-13.4
		C86.1,10.8,81,9,74.5,9c-7.4,0-13.5,2.8-17.7,7.9c-3.7,4.6-5.7,11-5.7,18.2c0,11.9,6.7,24.6,25.5,24.6c7.2,0,14.2-2.2,18.3-4.2
		V43.6C92.7,44.8,85.8,48.5,76.4,48.4 M74.5,20c4.8,0,8.1,3.4,8.4,7.6H64.9C66.2,23,69.4,20,74.5,20"/>
	<path class="st0" d="M134.6,30v28.7h12.9V28.1c0-12.8-5.9-19-18.1-19c-4.1,0-8.8,1.5-10.5,2.2l-0.1-1h-12.8v48.4h12.9V22.4
		c2.8-1.7,7.1-2.5,10.6-1.7C132.9,21.6,134.6,23.8,134.6,30"/>
	<path class="st0" d="M256.4,38.9V10.3h-12.9v30.6c0,12.8,5.9,19,18.1,19c4.2,0,8.8-1.6,10.5-2.2l0.1,1H285V10.3h-12.9v36.3
		c-2.8,1.7-7.1,2.5-10.6,1.7C258.1,47.4,256.4,45.2,256.4,38.9"/>
	<path class="st0" d="M158.3,0v42c0,5.8,1,9.9,3.1,12.7c2.6,3.4,6.7,5,12.6,5c4.8,0,9.4-1,12.1-1.9V46.3c-1.7,0.4-6.8,1.5-9.7,1.5
		c-1.9,0-3.2-0.4-4-1.2c-1.2-1.2-1.2-3.2-1.2-5.2V20.9c5.1,0,11.4,0.3,14.9,0.7V10.3h-14.9V0H158.3z"/>
	<path class="st0" d="M232.6,35.2c-2.6-3.6-6.5-5.4-13.8-6.8c-3-0.6-6.6-1.2-8.7-2.3c-1-0.5-1.5-1.3-1.5-2.2c0-0.8,0.6-1.6,1.4-2.1
		c1.9-1,5.3-1.5,10.5-0.6c5,0.9,10.5,2.8,12.2,3.6V13.1c-6-3-11.3-4.1-17.2-4c-5.5,0.1-10.3,1.5-13.9,4.2c-3.7,2.8-5.8,6.8-6,11.6
		c-0.4,8,4.7,12.8,16.3,15.1c2.5,0.5,5.9,1.2,7.4,1.8c1.5,0.6,2.4,1.6,2.4,2.7c0,1.1-0.7,2.1-2,2.6c-2.2,0.9-5.7,0.8-8,0.5
		c-6.6-0.7-13-3-15.3-4.1v12c3.9,2,10.1,4.3,17.5,4.2c8.4-0.2,18.9-2.6,20.8-13.8C235.4,41.9,234.7,38.2,232.6,35.2"/>
</g>
</svg>
