<svg xmlns="http://www.w3.org/2000/svg" viewBox="0 0 124 24"><defs><style>.cls-1{fill:#174e9d;}</style></defs><title>images_logo_AOIPro</title><g id="images_logo_AOIPro"><path class="cls-1" d="M50.5817,4.3523a3.5406,3.5406,0,0,0-.5869-2.465c-.39-.3681-.7077-.5866-2.0305-.6529L47.7537.59h8.9338l-.2087.644c-1.3215.0663-1.64.2849-2.0324.6529a3.56,3.56,0,0,0-.585,2.465V19.7055a3.58,3.58,0,0,0,.585,2.47c.3924.3656.7109.5828,2.0324.65l.2087.7381H47.7537l.2106-.7381c1.3229-.0677,1.64-.2849,2.0305-.65a3.5611,3.5611,0,0,0,.5869-2.47Z"/><path class="cls-1" d="M16.7491,22.4973a4.896,4.896,0,0,1-1.6247.3287l-.21.7381h8.54l-.2106-.7381a2.9627,2.9627,0,0,1-1.6247-.6317,8.3973,8.3973,0,0,1-1.2933-2.4205L12.5577.1816H11.3S5.53,15.1075,4.7489,17.129a25.9914,25.9914,0,0,1-2.1461,4.69,3.892,3.892,0,0,1-2.37,1.0075l-.2113.7381h7.557L7.369,22.826a3.4763,3.4763,0,0,1-1.34-.3023c-.445-.2244-1.0872-.63-1.0872-1.2157a4.11,4.11,0,0,1,.2466-1.1912c.0559-.17.7437-1.97,1.6266-4.2763h8.3989l1.346,3.4577a10.2644,10.2644,0,0,1,.4431,1.35,4.4447,4.4447,0,0,1,.1586.8953C17.1614,22.0506,17.0246,22.37,16.7491,22.4973Zm-9.44-7.9429C8.9667,10.2362,10.99,4.9891,10.99,4.9891l3.7233,9.5653Z"/><path class="cls-1" d="M34.419.0669c-6.0806,0-11.0112,4.9454-11.0112,12s4.9306,12,11.0112,12,11.0113-4.9442,11.0113-12S40.501.0669,34.419.0669Zm0,22.6037c-3.9435,0-7.1383-4.1789-7.1383-10.6037S30.4755,1.4644,34.419,1.4644s7.139,4.1784,7.139,10.6025S38.3619,22.6706,34.419,22.6706Z"/><path class="cls-1" d="M110.898,8.1193c-3.9712,0-7.19,3.2856-7.19,7.9738s3.2185,7.9738,7.19,7.9738,7.191-3.2849,7.191-7.9738S114.87,8.1193,110.898,8.1193Zm0,14.5385c-2.2527,0-4.0778-2.5874-4.0778-6.5647S108.6453,9.53,110.898,9.53s4.0765,2.5862,4.0765,6.5627S113.1507,22.6578,110.898,22.6578Z"/><path class="cls-1" d="M84.0548,2.4133A8.8831,8.8831,0,0,0,78.0267.59H67.4431l.21.644a5.7952,5.7952,0,0,1,1.6272.3416,1.5172,1.5172,0,0,1,.65.8161A7.2331,7.2331,0,0,1,70.11,4.5327V19.525a7.2407,7.2407,0,0,1-.1792,2.1427,1.5133,1.5133,0,0,1-.65.8174,6.0017,6.0017,0,0,1-1.6272.3578l-.21.7213h8.7354l-.2093-.7213a6.0045,6.0045,0,0,1-1.6279-.3578,1.5163,1.5163,0,0,1-.6505-.8174,7.25,7.25,0,0,1-.1785-2.1427V13.7325H77.03c2.1642,0,5.122-.2572,6.8776-1.68a6.4473,6.4473,0,0,0,2.2251-4.8687A6.0418,6.0418,0,0,0,84.0548,2.4133ZM81.11,11.2489q-1.3486,1.2948-4.3924,1.2944H73.5123V3.1952a1.3732,1.3732,0,0,1,.47-1.1887,4.53,4.53,0,0,1,2.2412-.3436,9.9748,9.9748,0,0,1,3.8517.5376,3.7412,3.7412,0,0,1,1.7763,1.6522,6.8181,6.8181,0,0,1,.6081,3.2C82.46,9.04,82.0082,10.3858,81.11,11.2489Z"/><ellipse class="cls-1" cx="121.9518" cy="21.9905" rx="2.07" ry="2.0773"/><path class="cls-1" d="M91.1051,19.614a7.9829,7.9829,0,0,1-.1791,2.1478,1.5117,1.5117,0,0,1-.6505.8167,6.0012,6.0012,0,0,1-1.6272.3578l-.21.6279h8.59l-.21-.6279a6.0017,6.0017,0,0,1-1.6272-.3578,1.5116,1.5116,0,0,1-.65-.8167,11.2285,11.2285,0,0,1-.1792-2.1478V16.5921a9.0593,9.0593,0,0,1,1.5913-5.2013,4.3332,4.3332,0,0,1,2.5918-2.0866,2.2258,2.2258,0,0,0-.4662,1.3718,2.0015,2.0015,0,1,0,3.9981.1147c.0013-.0284.0007-.2643-.007-.3378-.1137-1.7643-1.56-2.4412-3.0317-2.4412-3.6276,0-5.0859,4.2448-5.0859,4.2461V8.69H88.4l.21.6575s.4752.0167.9183.0541a1.6044,1.6044,0,0,1,1.1141.49,2.2034,2.2034,0,0,1,.463,1.5535Z"/></g></svg>