<?xml version="1.0" encoding="UTF-8"?> <!-- Generator: Adobe Illustrator 25.1.0, SVG Export Plug-In . SVG Version: 6.00 Build 0) --> <svg xmlns="http://www.w3.org/2000/svg" xmlns:xlink="http://www.w3.org/1999/xlink" version="1.1" id="レイヤー_1" x="0px" y="0px" viewBox="0 0 180.2 46" style="enable-background:new 0 0 180.2 46;" xml:space="preserve"> <style type="text/css"> .st0{fill:#FFDB00;} .st1{fill:#231815;} .st2{fill:#FFFFFF;} </style> <g> <g> <rect y="0" class="st0" width="180.2" height="46"></rect> </g> <g> <path class="st1" d="M122,24.7c0-1.3-1.1-2.4-2.4-2.4h-0.6h-1.5v-1.5h-7.4v0v-2.3v0H122v-3h-12h-0.6c-1.3,0-2.4,1.1-2.4,2.4l0-0.1 v0.7v2.3v0.7l0-0.1c0,1.3,1.1,2.4,2.4,2.4h0.6h1.5l0,1.5h7.4v0v2.4v0h-11.9l0,3h12h0.6c1.3,0,2.4-1.1,2.4-2.4l0,0.1v-0.7v-2.4 L122,24.7L122,24.7z"></path> <polygon class="st1" points="139.4,15.4 124.1,15.4 124.1,18.4 130.3,18.4 130.3,30.6 133.3,30.6 133.3,18.4 139.4,18.4 "></polygon> <polygon class="st1" points="156.8,18.4 156.8,15.4 144.5,15.4 142.3,15.4 141.5,15.4 141.5,30.6 143,30.6 144.5,30.6 156.8,30.6 156.8,27.6 144.5,27.6 144.5,24.4 154.9,24.4 154.9,21.4 144.5,21.4 144.5,18.4 "></polygon> <polygon class="st1" points="61.9,27.6 66,21.5 66,30.6 69,30.6 69,15.4 66,15.4 66,15.4 60.5,24.1 55,15.4 55,15.4 52,15.4 52,30.6 55,30.6 55,21.5 59.1,27.6 "></polygon> <polygon class="st1" points="101.7,15.4 101.7,26.3 92.1,15.4 92.1,15.4 89.1,15.4 89.1,30.6 92.1,30.6 92.1,19.7 101.7,30.6 101.7,30.6 104.6,30.6 104.6,15.4 "></polygon> <path class="st1" d="M84.4,15.4h-0.6h-9.6h-0.6c-1.3,0-2.4,1.1-2.4,2.4l0-0.1V23v5.3l0-0.1c0,1.3,1.1,2.4,2.4,2.4h0.6h9.6h0.6 c1.3,0,2.4-1.1,2.4-2.4V23v0v-5.2C86.8,16.5,85.8,15.4,84.4,15.4 M83.8,27.6h-9.4v-9.3h9.4V27.6z"></path> <path class="st1" d="M171.2,30.6h4l-5.5-6.1h1.1h0.6c1.3,0,2.4-1.1,2.4-2.4l0,0.1v-0.7v-3.1v-0.7l0,0.1c0-1.3-1.1-2.4-2.4-2.4 h-0.6h-10.2H159v15.2h3v-6.1h3.8L171.2,30.6z M162,18.4h8.8v0v3.1v0H162V18.4z"></path> </g> <g> <path class="st1" d="M41.3,15.4c-0.9,1.4,0.6,1.1,0.4,3c-1.1,7.3-6.8,12.4-15.9,12.4h0c-8.9,0-14.6-5.1-15.9-12 c-0.4-2.3,1.4-1.9,0.4-3.4c-1.7-2.5-3.4,4.2-2.7,4.7c0.3,0.2,0.6,0.2,1-0.6c0.1-0.2,0.3-0.3,0.4,0c0.1,0.7,0.3,1.3,0.5,2 c-0.7,3.5,0,8,2.4,9.3c0.9,0.2-0.3-1.2,0.5-3.6c2.7,3.6,7,6.2,13.3,6.2h0c6.4,0,10.6-2.6,13.3-6c0.7,2.4-0.4,3.8,0.4,3.5 c2.4-1.3,3.1-5.8,2.4-9.2c0.2-0.6,0.4-1.3,0.5-1.9c0.1-0.6,0.4-0.4,0.5-0.2c0.5,0.8,0.7,0.8,1,0.6C44.7,19.6,43,12.9,41.3,15.4z M11.7,29.6c-0.9-0.8-1.5-3.5-1.2-5.6c0.3,0.7,0.7,1.5,1.2,2.2C11.3,28.1,11.7,29.3,11.7,29.6z M39.8,29.6c0-0.2,0.4-1.4,0-3.3 c0.4-0.7,0.8-1.4,1.2-2.2C41.3,26.2,40.8,28.8,39.8,29.6z M41.6,13.9c2-1.9,3.3,2.8,3.5,4.9C45.7,12.7,42.9,11.3,41.6,13.9z"></path> <g> <path class="st2" d="M11.7,29.6c-0.9-0.8-1.5-3.5-1.2-5.6c0.3,0.7,0.7,1.5,1.2,2.2C11.3,28.1,11.7,29.3,11.7,29.6z"></path> <path class="st2" d="M39.8,29.6c0-0.2,0.4-1.4,0-3.3c0.4-0.7,0.8-1.4,1.2-2.2C41.3,26.2,40.8,28.8,39.8,29.6z"></path> </g> </g> </g> </svg> 