<?xml version="1.0" encoding="utf-8"?>
<!-- Generator: Adobe Illustrator 16.0.0, SVG Export Plug-In . SVG Version: 6.00 Build 0)  -->
<!DOCTYPE svg PUBLIC "-//W3C//DTD SVG 1.1//EN" "http://www.w3.org/Graphics/SVG/1.1/DTD/svg11.dtd">
<svg version="1.1" id="Layer_1" xmlns="http://www.w3.org/2000/svg" xmlns:xlink="http://www.w3.org/1999/xlink" x="0px" y="0px"
	 width="1000px" height="441.138px" viewBox="0 0 1000 441.138" enable-background="new 0 0 1000 441.138" xml:space="preserve">
<g>
	<path fill-rule="evenodd" clip-rule="evenodd" d="M630.693,175.366c-17.353,53.24-66.111,94.663-127.921,94.663
		c-65.54,0-109.606-40.865-127.297-93.507c18.406,49.039,68.492,84.2,127.393,84.2C562.228,260.722,612.637,225.007,630.693,175.366
		 M375.182,94.122C392.611,41.019,433.852,0,502.772,0c64.061,0,111.137,41.58,128.205,95.284
		c-17.809-50.05-68.446-86.166-128.109-86.166C443.655,9.119,393.35,44.673,375.182,94.122"/>
	<path fill-rule="evenodd" clip-rule="evenodd" d="M505.484,81.007c0.829-1.211,3.31-0.404,5.068-0.361
		c2.385,0.047,1.816,3.498,5.081,2.81c3.259-0.683,3.305,3.06,7.96,2.928c4.684-0.145-0.93,1.607-0.93,1.607
		s-2.888-1.374-4.767-0.458c-0.979,0.483,0.372-0.272-1.275-1.612c-2.566-2.066-2.229,0.392-6.537-3.217
		C507.055,80.162,504.14,83.006,505.484,81.007 M528.912,175.249c1.86,0.74,4.172,2.57,5.243,5.351
		c2.526,6.595-1.227,1.249-1.227,11.194c0,9.156-2.624,7.671-2.624,7.671s-0.567,10.82-6.229,17.465
		c-3.617,3.577-0.808,6.539-0.808,6.539s-1.227,0.668-2.997,8.516c-0.568,2.545,2.727,6.462,5.598,5.485
		c2.137-0.73-5.22-1.43,2.754-4.752c3.082-1.284,0.561-3.693,0.561-3.693s5.17-0.382,8.085-8.08
		c5.138,0.737,3.229-2.365,13.814-4.614c2.798-0.598,3.39-1.424,3.045-4.025c-0.352-2.587,3.45,0.38,13.938-10.156
		c8.269-8.32,5.287-10.192,10.999-13.214c6.037-3.168,6.593,0.284,8.614-2.312c4.628-5.903,2.988-5.539,4.911-9.298l1.367-2.088
		L528.912,175.249z M470.762,87.745c-1.717-4.178-1.602-10.947,2.069-17.207c2.312-3.91,8.442-5.642,13.794-3.583
		c6.007-4.668,7.437,0.355,12.757-1.916c6.984-2.986,3.071,7.906,9.838,10.663c2.795-7.345-6.375-12.86-0.625-16.327
		c4.105-2.463,7.199-3.993,8.879-7.304c2.397-4.708,3.339-8.146,5.175-8.771c4.265-1.428,3.348-5.42,3.348-5.42
		s4.528,1.313,8.06-1.95c-2.693-1.426-6.625-2.663-5.59-5.508c1.208-3.362,10.346,3.472,13.039-2.042
		c-5.422-2.335-10.969-7.397-14.284-8.563c-2.279,2.439-3.696,1.458-6.63-0.835c-4.959-3.866-5.378-0.181-8.482-2.85
		c-2.479,4.908,1.249,4.518,2.405,5.746c3.185,3.438-3.232-3.09-2.614,5.684c0.164,2.281-3.249,2.697-5.792-2.246
		c-1.325-2.571-11.867-2.024-13.457-4.486c1.451-2.862,13.86-13.059,32.92-10.614c-27.682-10.712-65.088,0.999-65.461,5.069
		c-3.728,2.305-2.446,4.93-4.304,5.545c-3.217,1.061-6.738,10.765-6.738,10.765s2.006,1.319-4.252,8.223
		c-5.154,5.684-6.682,14.303-6.682,14.303s3.408,6.14,2.763,13.22c-0.487,5.395-0.717,1.396,1.667,5.309
		c1.386,2.29,2.902,10.283,3.823,7.166c1.766-5.956-3.207-11.458-2.385-17.376c0.183,0.737,1.911-2.342,1.843,0.446
		c-0.191,7.308,9.134,21.391,9.134,21.391s-3.48,3.476,0.151,3.476L470.762,87.745z"/>
	<path d="M272.393,107.326h-21.024l3.137,3.685v27.196c0,6.122-4.107,8.7-10.242,8.7c-6.131,0-10.247-2.578-10.247-8.7v-27.196
		l3.143-3.685h-21.019l3.137,3.685v27.639c0,13.572,7.712,18.804,24.986,18.804c17.278,0,24.987-5.231,24.987-18.804v-27.639
		L272.393,107.326z"/>
	<polygon points="345.35,107.326 327.612,107.326 330.768,111.011 330.768,135.779 305.334,107.326 289.394,107.326 
		292.542,111.011 292.542,152.808 289.394,156.493 307.118,156.493 303.982,152.808 303.982,127.608 330.99,156.493 
		342.207,156.493 342.207,111.011 	"/>
	<polygon points="386.196,156.493 383.054,152.808 383.054,111.011 386.196,107.326 365.027,107.326 368.17,111.011 368.17,152.808 
		365.027,156.493 	"/>
	<polygon points="456.004,107.326 438.196,107.326 441.339,111.011 428.778,138.069 416.654,111.011 419.803,107.326 
		398.85,107.326 422.114,156.493 432.512,156.493 	"/>
	<polygon points="515.444,156.493 515.444,143.155 511.702,146.252 486.198,146.252 486.198,136.805 502.35,136.805 
		506.023,139.911 506.023,123.908 502.35,127.009 486.198,127.009 486.198,117.569 511.702,117.569 515.444,120.667 
		515.444,107.326 468.473,107.326 471.615,111.011 471.615,152.808 468.473,156.493 	"/>
	<path fill-rule="evenodd" clip-rule="evenodd" d="M586.951,156.493l-13.525-19.389c6.648-2.659,11.276-7.742,11.276-14.887
		c0-8.189-5.079-14.891-19.294-14.891h-31.111l3.149,3.685v41.796l-3.149,3.685h20.87l-3.136-3.685v-13.933h6.272l9.563,13.933
		l-3.129,3.685H586.951z M569.758,123.246c0,3.54-3.445,6.417-8.238,6.417h-9.489v-12.094h11.289
		C566.604,117.569,569.758,119.201,569.758,123.246"/>
	<path d="M650.146,142.123c0-7.816-6.365-12.164-15.565-15.114c-5.982-1.837-14.431-3.162-14.431-7.075
		c0-1.919,2.312-3.25,6.353-3.25c5.398,0,14.21,2.215,21.087,5.458v-16.428l-3.957,3.752c-4.19-1.698-11.449-3.464-16.452-3.464
		c-16.969,0-22.441,7.37-22.441,14.083c0,9.136,6.132,13.12,15.786,16.437c7.167,2.428,13.828,2.651,13.828,6.696
		c0,3.476-4.104,3.918-6.199,3.918c-5.311,0-14.739-1.848-23.119-7.225v18.202l3.969-4.276c3.895,1.482,12.644,3.981,19.822,3.981
		C643.552,157.817,650.146,151.405,650.146,142.123"/>
	<path fill-rule="evenodd" clip-rule="evenodd" d="M724.754,156.493l-24.532-49.167h-16.833l1.787,3.685l-22.213,45.481h18.33
		l-3.143-3.685l2.465-5.157h23.785l2.391,5.157l-3.143,3.685H724.754z M700.741,138.806h-16.539l8.238-17.618L700.741,138.806z"/>
	<polygon points="783.864,156.493 783.864,143.155 780.118,146.252 756.112,146.252 756.112,111.011 759.248,107.326 
		738.377,107.326 741.52,111.011 741.52,152.808 738.377,156.493 	"/>
	<path d="M770.542,114.142c0,3.443,2.822,6.218,6.298,6.218c3.499,0,6.32-2.774,6.32-6.218c0-3.438-2.821-6.221-6.32-6.221
		C773.365,107.921,770.542,110.704,770.542,114.142 M769.882,114.142c0-3.79,3.119-6.865,6.958-6.865
		c3.857,0,6.975,3.075,6.975,6.865c0,3.793-3.117,6.874-6.975,6.874C773.001,121.016,769.882,117.936,769.882,114.142"/>
	<path fill-rule="evenodd" clip-rule="evenodd" d="M779.471,111.459c-0.696-0.574-1.511-0.838-2.41-0.838
		c-2.046,0-3.573,1.564-3.573,3.54c0,1.994,1.497,3.582,3.548,3.582c0.938,0,1.83-0.334,2.528-0.944v-0.909
		c-0.636,0.749-1.566,1.229-2.552,1.229c-1.639,0-2.847-1.408-2.847-2.957c0-1.553,1.22-2.925,2.858-2.925
		c0.987,0,1.788,0.392,2.447,1.107V111.459z"/>
	<g>
		<path d="M201.4,440.286h-14.599l2.169-2.483v-28.288l-2.169-2.483H201.4l-2.168,2.483v28.288L201.4,440.286z"/>
		<path d="M258.886,407.031l-2.169,2.483v30.771h-7.765l-18.632-19.549v17.065l2.167,2.483H220.26l2.167-2.483v-28.288l-2.167-2.483
			h10.993l17.548,19.257v-16.773l-2.168-2.483H258.886z"/>
		<path d="M308.279,416.063l-2.521-2.093h-9.405v23.832l2.168,2.483h-14.396l2.167-2.483v-23.832h-9.404l-2.521,2.093v-9.032h33.912
			V416.063z"/>
		<path d="M356.208,440.286h-32.424l2.167-2.483v-28.288l-2.167-2.483h32.424v9.032l-2.597-2.093h-17.599v6.378h11.145l2.546-2.095
			v10.81l-2.546-2.093h-11.145v6.378h17.599l2.597-2.094V440.286z"/>
		<path d="M410.871,440.286h-15.33l2.168-2.483l-6.605-9.422h-4.337v9.422l2.169,2.483h-14.396l2.167-2.483v-28.288l-2.167-2.483
			h21.481c4.64,0,8.018,0.926,10.136,2.776c2.118,1.85,3.177,4.284,3.177,7.302c0,2.322-0.698,4.343-2.093,6.063
			c-1.396,1.72-3.294,3.052-5.698,3.993L410.871,440.286z M398.996,417.792c0-0.877-0.207-1.598-0.618-2.168
			c-0.413-0.567-0.955-0.984-1.626-1.253c-0.672-0.268-1.404-0.4-2.194-0.4h-7.791v8.179h6.556c1.631,0,2.983-0.422,4.06-1.265
			C398.457,420.039,398.996,419.009,398.996,417.792z"/>
		<path d="M467.6,407.031l-2.169,2.483v30.771h-7.766l-18.632-19.549v17.065l2.167,2.483h-12.228l2.167-2.483v-28.288l-2.167-2.483
			h10.993l17.548,19.257v-16.773l-2.169-2.483H467.6z"/>
		<path d="M524.959,440.286h-14.572l2.168-2.483l-1.64-3.505h-16.438l-1.69,3.505l2.169,2.483h-12.657l15.329-30.771l-1.235-2.483
			h11.623L524.959,440.286z M508.37,428.309l-5.723-11.905l-5.674,11.905H508.37z"/>
		<path d="M570.496,416.063l-2.523-2.093h-9.404v23.832l2.168,2.483H546.34l2.168-2.483v-23.832h-9.404l-2.521,2.093v-9.032h33.913
			V416.063z"/>
		<path d="M600.851,440.286h-14.599l2.17-2.483v-28.288l-2.17-2.483h14.599l-2.168,2.483v28.288L600.851,440.286z"/>
		<path d="M657.454,423.635c0,3.993-0.939,7.303-2.822,9.932c-1.884,2.629-4.325,4.549-7.326,5.759
			c-3.001,1.208-6.231,1.813-9.695,1.813c-3.444,0-6.677-0.608-9.693-1.824c-3.016-1.219-5.476-3.145-7.375-5.782
			c-1.898-2.638-2.849-5.936-2.849-9.896c0-3.034,0.558-5.672,1.677-7.912c1.118-2.24,2.63-4.062,4.538-5.466
			c1.909-1.402,4.031-2.434,6.366-3.091c2.337-0.658,4.781-0.986,7.336-0.986c2.589,0,5.053,0.333,7.389,0.998
			c2.337,0.666,4.442,1.691,6.316,3.079c1.874,1.389,3.365,3.207,4.476,5.454C656.899,417.958,657.454,420.601,657.454,423.635z
			 M646.664,423.635c0-3.23-0.727-5.749-2.182-7.56c-1.455-1.81-3.744-2.715-6.872-2.715c-2.066,0-3.781,0.419-5.143,1.254
			c-1.362,0.836-2.355,2.021-2.987,3.555c-0.63,1.534-0.946,3.355-0.946,5.466c0,1.526,0.172,2.93,0.517,4.211
			c0.345,1.282,0.893,2.379,1.64,3.286c0.748,0.911,1.697,1.606,2.849,2.095c1.152,0.487,2.511,0.73,4.071,0.73
			c1.582,0,2.947-0.243,4.1-0.73c1.15-0.488,2.092-1.184,2.823-2.095c0.731-0.907,1.269-1.983,1.613-3.226
			C646.491,426.666,646.664,425.242,646.664,423.635z"/>
		<path d="M712.721,407.031l-2.168,2.483v30.771h-7.766l-18.632-19.549v17.065l2.166,2.483h-12.226l2.166-2.483v-28.288
			l-2.166-2.483h10.992l17.549,19.257v-16.773l-2.17-2.483H712.721z"/>
		<path d="M770.082,440.286h-14.573l2.168-2.483l-1.639-3.505h-16.438l-1.689,3.505l2.169,2.483H727.42l15.33-30.771l-1.235-2.483
			h11.623L770.082,440.286z M753.491,428.309l-5.724-11.905l-5.673,11.905H753.491z"/>
		<path d="M816.197,440.286h-31.39l2.166-2.483v-28.288l-2.166-2.483h14.395l-2.169,2.483v23.834h16.565l2.599-2.094V440.286z"/>
	</g>
	<g>
		<path d="M38.828,336.182l-2.168,2.484v18.693c0,2.322-0.345,4.285-1.034,5.894c-0.689,1.605-1.723,2.91-3.1,3.906
			c-1.379,1.001-3.145,1.737-5.295,2.217c-2.153,0.477-4.756,0.717-7.816,0.717c-3.043,0-5.635-0.24-7.777-0.717
			c-2.144-0.479-3.913-1.216-5.309-2.217c-1.394-0.996-2.437-2.305-3.126-3.92s-1.034-3.571-1.034-5.88v-18.693L0,336.182h14.522
			l-2.168,2.484v18.403c0,1.979,0.625,3.457,1.879,4.43c1.252,0.974,2.979,1.46,5.18,1.46c2.202,0,3.934-0.479,5.194-1.446
			c1.261-0.967,1.891-2.446,1.891-4.443v-18.403l-2.168-2.484H38.828z"/>
		<path d="M94.499,336.182l-2.169,2.484v30.771h-7.765l-18.632-19.55v17.065l2.168,2.484H55.873l2.167-2.484v-28.287l-2.167-2.484
			h10.993l17.548,19.255v-16.771l-2.169-2.484H94.499z"/>
		<path d="M127.931,369.438h-14.598l2.167-2.484v-28.287l-2.167-2.484h14.598l-2.167,2.484v28.287L127.931,369.438z"/>
		<path d="M181.583,336.182l-16.212,33.256h-7.186l-16.06-33.256h14.471l-2.167,2.484l8.37,18.305l8.675-18.305l-2.169-2.484
			H181.583z"/>
		<path d="M227.952,369.438h-32.424l2.168-2.484v-28.287l-2.168-2.484h32.424v9.033l-2.597-2.096h-17.599v6.381H218.9l2.546-2.096
			v10.811l-2.546-2.096h-11.145v6.38h17.599l2.597-2.095V369.438z"/>
		<path d="M282.613,369.438h-15.33l2.169-2.484l-6.606-9.421h-4.337v9.421l2.17,2.484h-14.397l2.168-2.484v-28.287l-2.168-2.484
			h21.482c4.64,0,8.017,0.926,10.136,2.774c2.117,1.853,3.177,4.285,3.177,7.303c0,2.321-0.698,4.343-2.094,6.063
			c-1.396,1.72-3.294,3.052-5.697,3.994L282.613,369.438z M270.738,346.941c0-0.875-0.206-1.599-0.618-2.166
			s-0.955-0.986-1.625-1.254c-0.672-0.267-1.404-0.402-2.195-0.402h-7.791v8.182h6.556c1.631,0,2.984-0.423,4.061-1.268
			C270.199,349.188,270.738,348.158,270.738,346.941z"/>
		<path d="M331.527,359.722c0,1.608-0.291,3.052-0.871,4.336c-0.579,1.28-1.48,2.393-2.698,3.335
			c-1.218,0.939-2.747,1.666-4.589,2.177c-1.84,0.514-4.021,0.767-6.542,0.767c-1.529,0-3.173-0.146-4.929-0.436
			c-1.757-0.294-3.456-0.666-5.094-1.122c-1.639-0.453-2.861-0.835-3.668-1.143l-2.747,2.896v-12.317
			c2.622,1.655,5.407,2.882,8.357,3.687c2.95,0.805,5.484,1.206,7.602,1.206c1.093,0,2.082-0.183,2.963-0.547
			c0.882-0.365,1.323-1.068,1.323-2.108c0-0.828-0.387-1.46-1.159-1.899c-0.774-0.437-2.198-0.926-4.275-1.47
			c-2.075-0.545-3.45-0.93-4.121-1.159c-3.665-1.23-6.397-2.673-8.195-4.319c-1.799-1.648-2.698-3.916-2.698-6.806
			c0-1.639,0.5-3.177,1.5-4.612c1-1.437,2.673-2.612,5.018-3.531c2.343-0.916,5.341-1.376,8.987-1.376
			c0.842,0,1.74,0.062,2.698,0.183c0.958,0.122,2.018,0.305,3.177,0.548c1.161,0.243,2.185,0.5,3.077,0.767
			c0.891,0.271,1.69,0.548,2.396,0.842l2.747-2.531v11.125c-1.63-0.747-3.34-1.399-5.131-1.96c-1.789-0.562-3.507-0.99-5.155-1.291
			s-3.077-0.449-4.287-0.449c-1.362,0-2.433,0.202-3.215,0.607c-0.781,0.406-1.173,0.933-1.173,1.582
			c0,0.618,0.294,1.152,0.884,1.608c0.588,0.453,1.34,0.849,2.256,1.18c0.916,0.334,2.11,0.699,3.58,1.095
			c1.472,0.398,2.551,0.703,3.241,0.916c3.445,1.084,6.096,2.436,7.955,4.052C330.598,355.167,331.527,357.225,331.527,359.722z"/>
		<path d="M388.383,369.438H373.81l2.167-2.484l-1.639-3.504H357.9l-1.689,3.504l2.167,2.484h-12.657l15.33-30.771l-1.235-2.484
			h11.623L388.383,369.438z M371.792,357.458l-5.725-11.905l-5.672,11.905H371.792z"/>
		<path d="M434.496,369.438h-31.39l2.168-2.484v-28.287l-2.168-2.484h14.397l-2.169,2.484v23.833h16.565l2.597-2.095V369.438z"/>
		<path d="M520.827,369.438h-14.095l2.168-2.484v-15.97l-9.127,18.454h-4.815l-10.312-18.745v16.261l2.168,2.484h-11.925
			l2.167-2.484v-28.287l-2.167-2.484h12.128l11.194,20.354l10.238-20.354h12.379l-2.169,2.484v28.287L520.827,369.438z"/>
		<path d="M576.698,336.182l-2.168,2.484v18.693c0,2.322-0.345,4.285-1.034,5.894c-0.689,1.605-1.723,2.91-3.101,3.906
			c-1.378,1.001-3.144,1.737-5.295,2.217c-2.152,0.477-4.756,0.717-7.816,0.717c-3.043,0-5.635-0.24-7.777-0.717
			c-2.144-0.479-3.913-1.216-5.309-2.217c-1.394-0.996-2.437-2.305-3.126-3.92s-1.034-3.571-1.034-5.88v-18.693l-2.167-2.484h14.522
			l-2.168,2.484v18.403c0,1.979,0.625,3.457,1.879,4.43c1.252,0.974,2.979,1.46,5.18,1.46c2.202,0,3.934-0.479,5.194-1.446
			s1.891-2.446,1.891-4.443v-18.403l-2.168-2.484H576.698z"/>
		<path d="M624.553,359.722c0,1.608-0.291,3.052-0.87,4.336c-0.58,1.28-1.48,2.393-2.698,3.335c-1.219,0.939-2.748,1.666-4.59,2.177
			c-1.84,0.514-4.021,0.767-6.542,0.767c-1.529,0-3.173-0.146-4.929-0.436c-1.757-0.294-3.455-0.666-5.094-1.122
			c-1.639-0.453-2.86-0.835-3.668-1.143l-2.748,2.896v-12.317c2.623,1.655,5.407,2.882,8.357,3.687s5.484,1.206,7.602,1.206
			c1.093,0,2.081-0.183,2.964-0.547c0.882-0.365,1.322-1.068,1.322-2.108c0-0.828-0.387-1.46-1.159-1.899
			c-0.773-0.437-2.198-0.926-4.274-1.47c-2.075-0.545-3.45-0.93-4.121-1.159c-3.665-1.23-6.396-2.673-8.194-4.319
			c-1.8-1.648-2.698-3.916-2.698-6.806c0-1.639,0.5-3.177,1.5-4.612c1-1.437,2.673-2.612,5.019-3.531
			c2.344-0.916,5.341-1.376,8.986-1.376c0.842,0,1.741,0.062,2.699,0.183c0.958,0.122,2.017,0.305,3.176,0.548
			c1.161,0.243,2.185,0.5,3.077,0.767c0.891,0.271,1.689,0.548,2.396,0.842l2.748-2.531v11.125c-1.631-0.747-3.341-1.399-5.132-1.96
			c-1.789-0.562-3.508-0.99-5.155-1.291s-3.076-0.449-4.286-0.449c-1.362,0-2.434,0.202-3.216,0.607
			c-0.78,0.406-1.172,0.933-1.172,1.582c0,0.618,0.294,1.152,0.883,1.608c0.589,0.453,1.34,0.849,2.256,1.18
			c0.916,0.334,2.11,0.699,3.58,1.095c1.473,0.398,2.552,0.703,3.241,0.916c3.445,1.084,6.096,2.436,7.955,4.052
			C623.624,355.167,624.553,357.225,624.553,359.722z"/>
		<path d="M657.48,369.438h-14.598l2.169-2.484v-28.287l-2.169-2.484h14.598l-2.168,2.484v28.287L657.48,369.438z"/>
		<path d="M707.983,367.052c-0.639,0.354-1.453,0.713-2.445,1.07c-0.991,0.355-2.084,0.677-3.277,0.96
			c-1.194,0.284-2.483,0.524-3.871,0.72c-1.387,0.193-2.701,0.291-3.945,0.291c-2.689,0-5.225-0.331-7.602-0.997
			c-2.379-0.666-4.498-1.703-6.354-3.115c-1.856-1.413-3.315-3.23-4.374-5.454s-1.589-4.806-1.589-7.742
			c0-2.433,0.446-4.707,1.337-6.816c0.891-2.108,2.21-3.946,3.959-5.515c1.746-1.564,3.886-2.777,6.417-3.64
			c2.529-0.857,5.406-1.29,8.636-1.29c1.275,0,2.578,0.088,3.906,0.257s2.551,0.385,3.67,0.645c1.116,0.261,2.156,0.562,3.113,0.899
			l2.369-2.189v11.077c-1.277-0.764-2.566-1.399-3.869-1.913c-1.303-0.51-2.678-0.902-4.123-1.18
			c-1.446-0.276-2.949-0.412-4.513-0.412c-3.413,0-5.95,0.943-7.615,2.835c-1.664,1.89-2.495,4.306-2.495,7.242
			c0,1.997,0.429,3.761,1.285,5.295c0.857,1.534,2.084,2.724,3.682,3.565c1.598,0.845,3.42,1.268,5.472,1.268
			c1.899,0,3.634-0.196,5.206-0.585c1.57-0.389,2.873-0.838,3.907-1.352c1.034-0.511,2.071-1.081,3.114-1.717V367.052z"/>
		<path d="M775.226,355.487l-2.218-2.558h12.278v13.317c-0.724,0.439-1.673,0.889-2.849,1.352c-1.178,0.463-2.497,0.886-3.959,1.264
			c-1.463,0.382-2.941,0.683-4.438,0.902c-1.495,0.22-2.959,0.328-4.387,0.328c-3.614,0-6.977-0.608-10.085-1.825
			c-3.11-1.216-5.598-3.126-7.463-5.721c-1.865-2.596-2.798-5.85-2.798-9.763c0-3.91,0.983-7.164,2.95-9.763
			c1.966-2.595,4.508-4.494,7.627-5.697c3.117-1.2,6.373-1.801,9.769-1.801c2.422,0,4.42,0.182,6.002,0.547
			c1.578,0.368,3.36,0.882,5.344,1.548l2.749-2.483v11.418c-2.203-1.203-4.396-2.143-6.581-2.825s-4.521-1.021-7.01-1.021
			c-1.58,0-2.991,0.24-4.236,0.717c-1.243,0.479-2.298,1.166-3.163,2.058c-0.866,0.893-1.525,1.95-1.979,3.177
			c-0.453,1.227-0.681,2.602-0.681,4.126c0,3.068,0.895,5.521,2.686,7.363c1.79,1.845,4.248,2.765,7.374,2.765
			c1.277,0,2.967-0.187,5.068-0.562V355.487z"/>
		<path d="M838.41,369.438h-15.33l2.17-2.484l-6.606-9.421h-4.338v9.421l2.17,2.484h-14.397l2.168-2.484v-28.287l-2.168-2.484
			h21.482c4.64,0,8.017,0.926,10.136,2.774c2.117,1.853,3.177,4.285,3.177,7.303c0,2.321-0.698,4.343-2.094,6.063
			s-3.295,3.052-5.697,3.994L838.41,369.438z M826.536,346.941c0-0.875-0.207-1.599-0.619-2.166s-0.954-0.986-1.625-1.254
			c-0.673-0.267-1.404-0.402-2.195-0.402h-7.791v8.182h6.557c1.63,0,2.983-0.423,4.06-1.268
			C825.997,349.188,826.536,348.158,826.536,346.941z"/>
		<path d="M894.256,352.784c0,3.994-0.94,7.303-2.823,9.932c-1.884,2.629-4.323,4.549-7.324,5.758
			c-3.001,1.21-6.233,1.815-9.695,1.815c-3.444,0-6.677-0.608-9.693-1.825c-3.018-1.22-5.476-3.146-7.375-5.782
			c-1.899-2.639-2.849-5.937-2.849-9.897c0-3.034,0.558-5.67,1.676-7.911c1.117-2.24,2.631-4.062,4.539-5.468
			c1.907-1.402,4.029-2.433,6.366-3.088c2.335-0.659,4.781-0.987,7.336-0.987c2.589,0,5.053,0.331,7.388,0.997
			c2.336,0.666,4.441,1.693,6.315,3.078c1.876,1.39,3.367,3.207,4.476,5.455C893.703,347.107,894.256,349.75,894.256,352.784z
			 M883.465,352.784c0-3.23-0.727-5.748-2.18-7.56c-1.455-1.808-3.744-2.713-6.872-2.713c-2.066,0-3.781,0.419-5.143,1.253
			c-1.362,0.835-2.357,2.021-2.987,3.556c-0.631,1.534-0.946,3.355-0.946,5.464c0,1.527,0.172,2.93,0.517,4.211
			c0.345,1.283,0.891,2.379,1.64,3.287c0.748,0.909,1.697,1.605,2.849,2.096c1.152,0.486,2.509,0.729,4.071,0.729
			c1.58,0,2.947-0.243,4.098-0.729c1.15-0.49,2.094-1.187,2.823-2.096c0.731-0.908,1.27-1.983,1.613-3.227
			C883.292,355.815,883.465,354.393,883.465,352.784z"/>
		<path d="M948.163,336.182l-2.17,2.484v18.693c0,2.322-0.345,4.285-1.033,5.894c-0.689,1.605-1.723,2.91-3.101,3.906
			c-1.379,1.001-3.144,1.737-5.296,2.217c-2.15,0.477-4.756,0.717-7.816,0.717c-3.041,0-5.635-0.24-7.777-0.717
			c-2.144-0.479-3.913-1.216-5.307-2.217c-1.396-0.996-2.438-2.305-3.127-3.92c-0.689-1.615-1.034-3.571-1.034-5.88v-18.693
			l-2.168-2.484h14.522l-2.168,2.484v18.403c0,1.979,0.627,3.457,1.879,4.43c1.252,0.974,2.979,1.46,5.18,1.46
			c2.202,0,3.934-0.479,5.194-1.446s1.893-2.446,1.893-4.443v-18.403l-2.17-2.484H948.163z"/>
		<path d="M1000,347.208c0,4.771-1.535,8.06-4.602,9.861c-3.068,1.801-7.056,2.703-11.964,2.703h-6v7.181l2.168,2.484h-14.397
			l2.17-2.484v-28.287l-2.17-2.484h18.532c2.706,0,5.27,0.308,7.69,0.926c2.42,0.615,4.454,1.744,6.102,3.383
			C999.177,342.13,1000,344.37,1000,347.208z M989.511,347.793c0-1.737-0.541-2.95-1.626-3.64s-2.645-1.034-4.677-1.034h-5.773
			v10.054h4.866c2.471,0,4.29-0.389,5.457-1.166C988.928,351.227,989.511,349.824,989.511,347.793z"/>
	</g>
</g>
</svg>
