<?xml version="1.0" encoding="utf-8"?>
<!-- Generator: Adobe Illustrator 27.4.1, SVG Export Plug-In . SVG Version: 6.00 Build 0)  -->
<svg version="1.1" id="レイヤー_1" xmlns="http://www.w3.org/2000/svg" xmlns:xlink="http://www.w3.org/1999/xlink" x="0px"
	 y="0px" viewBox="0 0 102 56" style="enable-background:new 0 0 102 56;" xml:space="preserve">
<style type="text/css">
	.st0{fill:#0050FF;}
</style>
<g>
	<path class="st0" d="M87.3,28c-1.7-1.3-3.9-2.3-6.6-3.1c-3.4-1-4.9-2.3-4.9-4.7c0-1.5,1.5-3.2,3.7-3.2c3,0,4.2,2.5,4.4,3.1l6.2-2.6
		c-1.3-3.2-4.1-6.8-10.6-6.8c-3.1,0-5.8,1-7.8,2.8c-1.9,1.7-2.9,4.1-2.9,6.7c0,2.5,1,4.9,2.8,6.7c1.3,1.4,3.8,2.8,7.6,4
		c2.3,0.7,4.7,1.5,4.7,4.4c0,1.9-1.6,3.7-4.1,3.7c-2.4,0-4.1-1.2-5.2-3.6l-0.1-0.2l-6.5,2.7l0.1,0.2c1.8,4.7,5.9,7.3,11.3,7.3
		c4.3,0,7.1-1.8,8.6-3.3c1.9-1.9,2.9-4.4,2.9-6.8C91,32.3,89.8,29.9,87.3,28L87.3,28z"/>
	<path class="st0" d="M63.1,34.7c0-2.7-1.1-5.2-3-7.2l0,0l0,0c1.6-1.8,2.4-4.1,2.4-6.5c0-5.5-4.6-10-10.3-10H40.6v34h11.9
		C58.4,44.9,63.1,40.3,63.1,34.7L63.1,34.7z M47.3,17.3h5c2.1,0,3.7,1.6,3.7,3.7c0,2-1.7,3.7-3.7,3.7h-5V17.3z M47.2,38.7v-8h5.3
		c2.3,0,4.1,1.8,4.1,4s-1.8,4-4.1,4H47.2z"/>
	<path class="st0" d="M34.5,10.9H11v6.5h8.3v28.5l7-3V17.4h8.3V10.9z"/>
</g>
</svg>
